<svg width="430" height="520" viewBox="0 0 430 520" fill="none" xmlns="http://www.w3.org/2000/svg">
<path d="M1281.84 78.3371L1293.27 85.245C1374.29 134.214 1423.8 221.99 1423.8 316.66V388.12C1423.8 564.222 1281.52 707.229 1105.42 708.116L-731.885 717.379C-909.244 718.273 -1053.5 574.744 -1053.5 397.383V301.591C-1053.5 216.18 -1009.16 136.892 -936.392 92.1722L-893.991 66.1146C-829.667 26.5844 -747.312 32.3972 -689.179 80.5706C-629.303 130.187 -543.993 134.719 -479.198 91.7256L-460.253 79.1545C-388.477 31.5288 -294.558 33.4557 -224.686 83.8335C-157.231 132.469 -67.1094 136.217 4.06152 93.2013L37.0029 73.2913C110.797 28.6897 203.893 31.5327 274.828 80.5542C347.985 131.111 444.448 132.419 518.949 83.8651L524.948 79.955C599.153 31.5937 695.233 32.8969 768.099 83.2527C839.234 132.412 932.688 134.92 1006.36 89.6473L1023.21 79.2933C1102.45 30.5968 1202.25 30.2278 1281.84 78.3371Z" fill="#004567"/>
<path d="M1496.04 78.3371L1507.47 85.245C1588.49 134.214 1638 221.99 1638 316.66V388.12C1638 564.222 1495.71 707.229 1319.61 708.116L-517.688 717.379C-695.048 718.273 -839.302 574.744 -839.302 397.383V301.591C-839.302 216.18 -794.964 136.892 -722.196 92.1721L-679.795 66.1147C-615.471 26.5844 -533.116 32.3971 -474.982 80.5706C-415.107 130.187 -329.797 134.719 -265.002 91.7255L-246.057 79.1545C-174.281 31.5289 -80.3622 33.4557 -10.4902 83.8336C56.9653 132.469 147.087 136.217 218.258 93.2013L251.199 73.2913C324.993 28.6897 418.089 31.5327 489.025 80.5542C562.181 131.111 658.644 132.419 733.145 83.8651L739.145 79.955C813.349 31.5938 909.429 32.8969 982.295 83.2528C1053.43 132.412 1146.88 134.92 1220.55 89.6473L1237.4 79.2933C1316.64 30.5968 1416.44 30.2278 1496.04 78.3371Z" fill="url(#paint0_linear_328_1007)"/>
<path d="M1496.04 78.3371L1507.47 85.245C1588.49 134.214 1638 221.99 1638 316.66V388.12C1638 564.222 1495.71 707.229 1319.61 708.116L-517.688 717.379C-695.048 718.273 -839.302 574.744 -839.302 397.383V301.591C-839.302 216.18 -794.964 136.892 -722.196 92.1721L-679.795 66.1147C-615.471 26.5844 -533.116 32.3971 -474.982 80.5706C-415.107 130.187 -329.797 134.719 -265.002 91.7255L-246.057 79.1545C-174.281 31.5289 -80.3622 33.4557 -10.4902 83.8336C56.9653 132.469 147.087 136.217 218.258 93.2013L251.199 73.2913C324.993 28.6897 418.089 31.5327 489.025 80.5542C562.181 131.111 658.644 132.419 733.145 83.8651L739.145 79.955C813.349 31.5938 909.429 32.8969 982.295 83.2528C1053.43 132.412 1146.88 134.92 1220.55 89.6473L1237.4 79.2933C1316.64 30.5968 1416.44 30.2278 1496.04 78.3371Z" fill="black" fill-opacity="0.2"/>
<path d="M1127.34 78.3371L1138.77 85.245C1219.79 134.214 1269.3 221.99 1269.3 316.66V388.12C1269.3 564.222 1127.01 707.228 950.915 708.116L-886.387 717.379C-1063.75 718.273 -1208 574.744 -1208 397.383V301.591C-1208 216.18 -1163.66 136.892 -1090.89 92.1721L-1048.49 66.1146C-984.169 26.5844 -901.815 32.3971 -843.681 80.5706C-783.806 130.187 -698.495 134.719 -633.7 91.7255L-614.755 79.1545C-542.979 31.5288 -449.061 33.4557 -379.189 83.8335C-311.733 132.469 -221.612 136.217 -150.441 93.2013L-117.499 73.2913C-43.7051 28.6897 49.3911 31.5327 120.326 80.5542C193.483 131.111 289.946 132.419 364.447 83.8651L370.446 79.955C444.651 31.5937 540.731 32.8969 613.597 83.2527C684.731 132.412 778.186 134.92 851.855 89.6473L868.703 79.2933C947.943 30.5968 1047.74 30.2279 1127.34 78.3371Z" fill="url(#paint1_linear_328_1007)"/>
<defs>
<linearGradient id="paint0_linear_328_1007" x1="399.349" y1="0" x2="399.349" y2="719" gradientUnits="userSpaceOnUse">
<stop stop-color="#004567"/>
<stop offset="1" stop-color="#0089CD"/>
</linearGradient>
<linearGradient id="paint1_linear_328_1007" x1="30.6508" y1="0" x2="30.6508" y2="719" gradientUnits="userSpaceOnUse">
<stop stop-color="#47A6C2"/>
<stop offset="1" stop-color="#224F5C"/>
</linearGradient>
</defs>
</svg>
