<svg width="430" height="532" viewBox="0 0 430 532" fill="none" xmlns="http://www.w3.org/2000/svg">
<path d="M-557.943 22.036L-811.323 89.3901C-927.495 120.271 -1008.36 225.439 -1008.36 345.646C-1008.36 491.857 -890.004 610.476 -743.792 610.8L3584.9 620.398C3734.85 620.73 3856.59 499.263 3856.59 349.311C3856.59 226.835 3774.47 119.571 3656.23 87.6142L3429.92 26.4452C3366.25 9.23634 3298.82 12.1214 3236.85 34.7056L3041.63 105.854C2977.61 129.185 2907.82 131.473 2842.41 112.385L2550.81 27.2899C2489.85 9.49965 2424.98 10.25 2364.44 29.4455L2099.08 113.592C2041.05 131.993 1978.98 133.46 1920.15 117.821L1564.99 23.4117C1507.42 8.10816 1446.72 9.17821 1389.72 26.5015L1100.89 114.29C1041.88 132.225 978.947 132.726 919.66 115.732L606.725 26.0344C547.438 9.04077 484.503 9.54168 425.495 27.4768L137.349 115.056C79.9207 132.511 18.7407 133.462 -39.2027 117.801L-392.241 22.3808C-446.487 7.71906 -503.637 7.60016 -557.943 22.036Z" fill="#004567"/>
<path d="M-978.584 22.036L-1231.96 89.3901C-1348.14 120.271 -1429 225.439 -1429 345.646C-1429 491.857 -1310.64 610.476 -1164.43 610.8L3164.26 620.398C3314.21 620.73 3435.95 499.263 3435.95 349.311C3435.95 226.835 3353.83 119.571 3235.59 87.6142L3009.28 26.4452C2945.61 9.23634 2878.18 12.1214 2816.21 34.7056L2620.99 105.854C2556.97 129.185 2487.18 131.473 2421.77 112.385L2130.17 27.2899C2069.21 9.49965 2004.33 10.25 1943.8 29.4455L1678.44 113.592C1620.41 131.993 1558.34 133.46 1499.51 117.821L1144.35 23.4117C1086.78 8.10816 1026.08 9.17821 969.084 26.5015L680.25 114.29C621.241 132.225 558.306 132.726 499.02 115.732L186.084 26.0344C126.797 9.04077 63.863 9.54168 4.85437 27.4768L-283.291 115.056C-340.72 132.511 -401.9 133.462 -459.843 117.801L-812.881 22.3808C-867.127 7.71906 -924.277 7.60016 -978.584 22.036Z" fill="url(#paint0_linear_227_1396)"/>
<path d="M-978.584 22.036L-1231.96 89.3901C-1348.14 120.271 -1429 225.439 -1429 345.646C-1429 491.857 -1310.64 610.476 -1164.43 610.8L3164.26 620.398C3314.21 620.73 3435.95 499.263 3435.95 349.311C3435.95 226.835 3353.83 119.571 3235.59 87.6142L3009.28 26.4452C2945.61 9.23634 2878.18 12.1214 2816.21 34.7056L2620.99 105.854C2556.97 129.185 2487.18 131.473 2421.77 112.385L2130.17 27.2899C2069.21 9.49965 2004.33 10.25 1943.8 29.4455L1678.44 113.592C1620.41 131.993 1558.34 133.46 1499.51 117.821L1144.35 23.4117C1086.78 8.10816 1026.08 9.17821 969.084 26.5015L680.25 114.29C621.241 132.225 558.306 132.726 499.02 115.732L186.084 26.0344C126.797 9.04077 63.863 9.54168 4.85437 27.4768L-283.291 115.056C-340.72 132.511 -401.9 133.462 -459.843 117.801L-812.881 22.3808C-867.127 7.71906 -924.277 7.60016 -978.584 22.036Z" fill="black" fill-opacity="0.2"/>
<path d="M-254.531 22.0361L-507.91 89.3901C-624.082 120.271 -704.947 225.439 -704.947 345.646C-704.947 491.857 -586.591 610.476 -440.38 610.8L3888.31 620.398C4038.26 620.73 4160 499.263 4160 349.311C4160 226.835 4077.88 119.571 3959.65 87.6142L3733.33 26.4452C3669.66 9.23634 3602.23 12.1214 3540.26 34.7056L3345.04 105.854C3281.02 129.185 3211.23 131.473 3145.82 112.385L2854.23 27.2899C2793.26 9.49966 2728.39 10.25 2667.85 29.4455L2402.49 113.592C2344.47 131.993 2282.39 133.46 2223.56 117.821L1868.4 23.4117C1810.83 8.10816 1750.13 9.17821 1693.14 26.5015L1404.3 114.29C1345.29 132.225 1282.36 132.726 1223.07 115.732L910.137 26.0344C850.85 9.04077 787.916 9.54167 728.907 27.4768L440.762 115.056C383.333 132.511 322.153 133.462 264.21 117.801L-88.828 22.3808C-143.074 7.71906 -200.224 7.60017 -254.531 22.0361Z" fill="url(#paint1_linear_227_1396)"/>
<defs>
<linearGradient id="paint0_linear_227_1396" x1="1003.47" y1="0" x2="1003.47" y2="621" gradientUnits="userSpaceOnUse">
<stop stop-color="#004567"/>
<stop offset="1" stop-color="#0089CD"/>
</linearGradient>
<linearGradient id="paint1_linear_227_1396" x1="1727.53" y1="0" x2="1727.53" y2="621" gradientUnits="userSpaceOnUse">
<stop stop-color="#47A6C2"/>
<stop offset="1" stop-color="#224F5C"/>
</linearGradient>
</defs>
</svg>
