<?xml version="1.0" encoding="UTF-8"?>
<svg id="Layer_2" data-name="Layer 2" xmlns="http://www.w3.org/2000/svg" xmlns:xlink="http://www.w3.org/1999/xlink" viewBox="0 0 400.06 187.8">
  <defs>
    <style>
      .cls-1 {
        clip-path: url(#clippath);
      }

      .cls-2 {
        fill: #50b76e;
      }

      .cls-2, .cls-3, .cls-4, .cls-5, .cls-6, .cls-7, .cls-8, .cls-9, .cls-10, .cls-11, .cls-12, .cls-13, .cls-14, .cls-15, .cls-16, .cls-17, .cls-18 {
        stroke-width: 0px;
      }

      .cls-3 {
        fill: #289245;
      }

      .cls-4 {
        fill: #378346;
      }

      .cls-5 {
        fill: #3ca249;
      }

      .cls-6 {
        fill: #101312;
      }

      .cls-7 {
        fill: #155027;
      }

      .cls-8 {
        fill: #231f20;
      }

      .cls-9 {
        fill: #166534;
      }

      .cls-10 {
        fill: #aeadad;
      }

      .cls-11 {
        fill: #cecfd1;
      }

      .cls-12 {
        fill: #b8d9ca;
      }

      .cls-13 {
        fill: #7bc380;
      }

      .cls-14 {
        fill: #91cfab;
      }

      .cls-15 {
        fill: #72c595;
      }

      .cls-16 {
        fill: #e2f2ec;
      }

      .cls-17 {
        fill: #e6eaeb;
      }

      .cls-18 {
        fill: #f5f5f5;
      }

      .cls-19 {
        fill: none;
        stroke: #231f20;
        stroke-miterlimit: 10;
        stroke-width: .5px;
      }
    </style>
    <clipPath id="clippath">
      <path class="cls-19" d="M3.59,59.59C1.36,54.44.25,48.78.25,42.62s1.11-11.82,3.34-16.97c2.22-5.15,5.36-9.64,9.42-13.46,4.06-3.82,8.82-6.77,14.28-8.84C32.75,1.29,38.75.25,45.31.25c7.26,0,13.79,1.21,19.6,3.63,5.81,2.42,10.71,5.93,14.69,10.53l-12.17,11.24c-2.97-3.12-6.2-5.44-9.71-6.96-3.51-1.52-7.33-2.28-11.47-2.28s-7.61.63-10.88,1.87c-3.28,1.25-6.11,3.04-8.48,5.38-2.38,2.34-4.21,5.11-5.5,8.31-1.29,3.2-1.93,6.75-1.93,10.65s.64,7.33,1.93,10.53c1.29,3.2,3.12,5.99,5.5,8.37,2.38,2.38,5.19,4.2,8.43,5.44,3.24,1.25,6.81,1.87,10.71,1.87s7.39-.6,10.94-1.81c1.28-.44,2.55-.99,3.8-1.64v-24.05h17.32v33.24c-4.45,3.36-9.62,5.93-15.51,7.72-5.89,1.79-11.76,2.69-17.61,2.69-6.48,0-12.43-1.03-17.85-3.1-5.42-2.07-10.14-5.01-14.16-8.84-4.02-3.82-7.14-8.31-9.36-13.46ZM111.08,83.58h-18.96V1.65h35.46c7.33,0,13.65,1.19,18.96,3.57,5.31,2.38,9.4,5.79,12.29,10.24,2.89,4.45,4.33,9.75,4.33,15.92s-1.44,11.33-4.33,15.74c-2.89,4.41-6.98,7.78-12.29,10.12-.05.02-.11.04-.16.07l18.3,26.27h-20.48l-15.74-22.84c-.3,0-.58.02-.88.02h-16.5v22.82ZM111.08,45.66h15.45c5.85,0,10.22-1.27,13.11-3.8,2.89-2.53,4.33-6.03,4.33-10.47s-1.44-8.04-4.33-10.53c-2.89-2.5-7.26-3.75-13.11-3.75h-15.45v28.56ZM238.07,68.37h-44.59v-18.96h38.04v-14.75h-38.04v-17.79h43.07V1.65h-61.91v81.93h63.43v-15.21ZM313.09,68.37h-44.59v-18.96h38.04v-14.75h-38.04v-17.79h43.07V1.65h-61.91v81.93h63.43v-15.21ZM343.4,33.85l40.85,49.73h15.57V1.65h-18.73v49.7L340.35,1.65h-15.68v81.93h18.73v-49.73Z"/>
    </clipPath>
  </defs>
  <g id="Layer_1-2" data-name="Layer 1">
    <path class="cls-8" d="M93.85,108.39l-10.67,73.84c-.08,1.01-.6,1.99-1.56,2.96-.97.97-2.22,1.45-3.77,1.45h-16.58c-1.55,0-2.69-.41-3.42-1.22-.74-.81-1.18-1.45-1.33-1.91l-9.51-23.76-9.51,23.76c-.16.46-.6,1.1-1.33,1.91-.74.81-1.87,1.22-3.42,1.22h-16.58c-1.55,0-2.78-.48-3.71-1.45-.93-.96-1.47-1.95-1.62-2.96L.18,108.39v-.35c0-.7.25-1.29.75-1.8.5-.5,1.1-.75,1.8-.75h21.56c2.55,0,3.94,1.04,4.17,3.13l3.94,32.69,4.75-14.49c.15-.54.5-1.24,1.04-2.09.54-.85,1.51-1.28,2.9-1.28h11.82c1.39,0,2.36.43,2.9,1.28.54.85.89,1.55,1.04,2.09l4.75,14.37,3.94-32.57c.23-2.09,1.62-3.13,4.17-3.13h21.56c.7,0,1.29.25,1.8.75.5.5.75,1.1.75,1.8v.35ZM177.08,183.28c.08.23.12.5.12.81,0,.7-.25,1.29-.75,1.8-.5.5-1.1.75-1.8.75h-21.45c-1.47,0-2.53-.33-3.19-.99-.66-.66-1.1-1.29-1.33-1.91l-2.78-7.65h-24.92l-2.78,7.65c-.23.62-.66,1.26-1.28,1.91-.62.66-1.7.99-3.25.99h-21.45c-.7,0-1.29-.25-1.8-.75-.5-.5-.75-1.1-.75-1.8,0-.31.04-.58.12-.81l25.85-73.96c.23-.85.77-1.7,1.62-2.55.85-.85,2.05-1.28,3.59-1.28h25.16c1.54,0,2.74.43,3.59,1.28.85.85,1.39,1.7,1.62,2.55l25.85,73.96ZM139.98,153.49l-6.61-21.56-6.49,21.56h13.1ZM246.51,105.49h-21.56c-1.55,0-2.74.43-3.59,1.28s-1.39,1.7-1.62,2.55l-11.01,43.12-11.01-43.12c-.23-.85-.77-1.7-1.62-2.55-.85-.85-2.05-1.28-3.59-1.28h-21.56c-.7,0-1.29.25-1.8.75-.5.5-.75,1.1-.75,1.8,0,.23.04.5.12.81l21.79,73.96c.23.85.77,1.7,1.62,2.55.85.85,2.05,1.28,3.59,1.28h26.43c1.54,0,2.74-.42,3.59-1.28s1.39-1.7,1.62-2.55l21.79-73.96c.08-.31.12-.58.12-.81,0-.7-.25-1.29-.75-1.8-.5-.5-1.1-.75-1.8-.75ZM317.23,164.03h-35.7v-7.3h32.23c.85,0,1.58-.31,2.2-.93.62-.62.93-1.35.93-2.2v-15.07c0-.85-.31-1.58-.93-2.2-.62-.62-1.35-.93-2.2-.93h-32.23v-7.3h34.78c.85,0,1.58-.31,2.2-.93s.93-1.35.93-2.2v-16.34c0-.85-.31-1.58-.93-2.2-.62-.62-1.35-.93-2.2-.93h-59.47c-.85,0-1.58.31-2.2.93s-.93,1.35-.93,2.2v74.89c0,.85.31,1.58.93,2.2.62.62,1.35.93,2.2.93h60.4c.85,0,1.58-.31,2.2-.93.62-.62.93-1.35.93-2.2v-16.34c0-.85-.31-1.58-.93-2.2-.62-.62-1.35-.93-2.2-.93ZM396.69,147.8c-2.13-3.4-5.53-6.12-10.2-8.17-4.68-2.05-10.88-3.54-18.61-4.46-3.48-.46-6.14-.93-8-1.39-1.85-.46-3.13-1-3.83-1.62-.7-.62-1.04-1.28-1.04-1.97,0-1,.44-1.8,1.33-2.38.89-.58,2.3-.87,4.23-.87,1.62,0,2.96.25,4,.75,1.04.5,1.76.95,2.14,1.33.7.62,1.37,1.08,2.03,1.39.66.31,1.53.46,2.61.46h23.18c.62,0,1.18-.25,1.68-.75.5-.5.75-1.1.75-1.8-.08-2.55-.93-5.22-2.55-8s-3.98-5.39-7.07-7.82c-3.09-2.43-6.88-4.41-11.36-5.91-4.48-1.51-9.62-2.26-15.42-2.26-7.03,0-13.2,1.12-18.49,3.36-5.29,2.24-9.43,5.37-12.4,9.39-2.98,4.02-4.46,8.66-4.46,13.91s1.22,9.41,3.65,12.92c2.43,3.52,5.89,6.28,10.38,8.29,4.48,2.01,9.78,3.44,15.88,4.29,3.86.46,6.88.95,9.04,1.45,2.16.5,3.69,1.06,4.58,1.68.89.62,1.33,1.39,1.33,2.32,0,1-.79,1.8-2.38,2.38-1.58.58-3.69.87-6.32.87-1.24,0-2.38-.1-3.42-.29-1.04-.19-1.97-.5-2.78-.93-.81-.42-1.61-.91-2.38-1.45-.77-.62-1.49-1.1-2.14-1.45-.66-.35-1.6-.52-2.84-.52h-22.03c-.7,0-1.29.25-1.8.75-.5.5-.75,1.1-.75,1.8.15,4.25,1.62,8.27,4.4,12.06,2.78,3.79,6.96,6.84,12.52,9.16,5.56,2.32,12.63,3.48,21.21,3.48,7.34,0,13.91-1.1,19.71-3.3s10.38-5.35,13.74-9.45c3.36-4.1,5.04-8.96,5.04-14.61,0-5.02-1.06-9.23-3.19-12.64Z"/>
    <g>
      <g class="cls-1">
        <g>
          <path class="cls-10" d="M215.2-260.88c15.76-2.64,19.85,16.59,23.15,4.71,5.21,1.75,8.32-1.29,12.55,2.35,6.27-3.21,10.41-.02,10.98,0,6.24.18,13.22-.86,19.62-.78.6,0,.18,1.51.78,1.57.66.06,1.16-4.21,2.35-3.92.38.09-.26,2.33,5.1,2.75-.11,10.5,24.41,10.93,25.5-.39q1.18,3.53,2.35,7.06c4.9-2.55,8.69-.89,1.18,3.53-2.01,3.7,21.21,7.11,22.36,6.67.79-.3-1.04-4.18,5.88-3.53.29-5.92.63.29,2.35,4.32-8.71,8.21,13.77,14.33,16.09,13.34.53-.23,3.53-6.57,8.63-7.06,12.28-1.19,11.53,10.71,16.09,9.81-2.18,11.43,20.51,26.21,15.69,12.55,5.9-.89.45,4.98,2.35,6.28,1.4.96,2.97-.5,4.71,1.57.6.72,8.64,13.32,4.71,13.34,15.31,14.5,9.69,7.49,11.38,3.53,1.13-2.66,4.14,5.82,2.35-5.49,6.26,10,3.97,10.83,4.32,11.38,1,1.57,8.87,5.85,12.95,12.95,9.28-7.62,14.39,13.19,19.62,18.05.3.28,2.02-.28,2.35,0,10.05,8.31,9.74,2.98,12.95,7.85.1.15-2.6,1.79,1.57,1.57,3.23,6.53,6.39,3.67,6.28,5.1-1.46-.07-1.69,7.44-1.57,7.85,1.57,5.07,8.28,1.82,7.06,14.91,6.98,2.65,2.96,12.57,12.95,5.88-5.67,6.86,3.62-.13,7.45,2.75-3.27.61-1.86,9.31-1.57,17.26,6.7,3.64,13.08,15.64,15.3,17.65,1.84,1.67,4.46.53,5.1,1.57-.9.08-1.26.84-1.57,1.57-1.87,4.38-.12,14.65,4.71,13.73-3.42,2.43,2.17,1.63,0,8.63q4.71,2.35,9.42,4.71c.18,6.53.28,13.8,5.49,18.05,1.3,18.82,10.5,16.83.78,21.19,1.98,13.06-10.15,4.52-5.49,11.77.34.53,3.4,1.04,4.71,3.14.19.31.34,6.06,1.57,7.06.96.78,1.57-1.7,2.75-1.18.31.14,3.48,5.55,3.53,5.88.22,1.4-7.68,11.92-2.35,27.07-.36,2.64.7,2.26.78,2.35,3.77,4.29,1.52,12.33,3.14,18.44-10.41,9.16,1.08,12.75,1.57,19.62.66,9.19-13.52,30.22-4.71,32.17-3.73,14.87,1.65,14.23,1.57,15.69-.19,3.63-10.47,4.3.78,8.63-3.73.63-5.88,16.99-5.49,20.01.1.79-2,1.65.78,1.57-.82,8.47,2.06,7.1,1.57,8.24-.22.51-7.17.53-2.35,8.63-5.2.6-1.64,6.39-2.35,8.63-.35,1.11-12.54,12.57,1.57,17.26-3.1,3.04-15.73,12.01-5.49,9.42-11.93,24.54,1.36,35.47-7.85,29.82-6.08,5.66-6.98,14.41-8.24,9.02-.75,7.36,4.1,10.74-9.42,18.05-.9-3.79-10.36,8.15-5.88,9.81-10.09,1.72-6.01,13.99-6.28,14.91-.19.67-8.27-.39-1.57,9.42-10.34-1-4.79,2.43-6.28,5.49-.66,1.36-7.9,2.83-2.35,6.28-6.67.57-1.24,7.9-10.98,7.85,3.6,4.28-.7,4.9-1.96,8.24-6.65-3.98-2.18,8.33-8.24,9.81,5.47,3.74-5.74,9.34-6.28,11.77-.84,3.78,9.94.5-5.1,9.02-2.64-.45,3.31-6.69-.78-5.49-.94.28-12.23,14.33-12.16,15.3.12,1.86,7.84,1.72-4.32,9.81-2.56,1.71-6.19,2.29-8.63,3.92-12.42,8.32-23.97,18.87-39.23,21.97-6.09,11.79-8.96,1.39-9.02,8.24-.04,4.73,4.28,4.19,2.75,6.67-7.09-4.08-7.3-.64-8.63-.78-10.02-1.05-7.51-6.34-11.77,1.57-6.23-7.09-7.68,7.98-8.63,8.63-.43.29-7.7.74-10.2,2.35-5.9,3.81,3.56,6.72-24.32,7.06-9.03,9.37-17.03,6.35-18.05,7.06-1.1.78.32,5.35-.78,6.28-2.42,2.04-1.29-4.14-5.49-4.71-.77-.1-13.57,4.07-14.91,4.71-1.07.51,1.22,2.62-.78,3.14-.76.2-8.18-1.55-15.69-.78-23.14,2.35-19.09,7.67-22.75,8.63-7.77,2.03-19.77-7.17-28.25-5.49-4.5,6.3-4.59-2.42-14.12,4.71-13.48-7.06-31.41,1.21-43.94-5.49-.91,3.04-10.37-.7-13.34-.78-5.65-.16-13.4,4.93-18.05-1.57-4.55,2.96-14.82-.77-15.69-.78-11.09-.16-38.94,8.66-34.13-2.75-6.98-7.39-12.82,2.23-15.3-1.96-1.68,6.51-15.47-2.84-21.97-5.49-7.31.28-12.34-3.4-19.62-1.57-1.51-9.5-24.41-11.48-34.52-18.05-5.81-1.29-7.3.07-8.24,0h-1.57l-2.35-.39q-5.69-7.65-11.38-15.3c-8.74-1.08-14.31-9.33-21.58-14.12.04-.96-1.06-1.2-1.57-1.57-1.02-.74-6.94-4.68-7.06-5.1-.69-2.31,1.55-1.93,1.57-2.35.28-6.44-2.26,4.21-4.71,0-.9-1.56,3.85-15.69-18.44-20.01-6.24-5.81-5.62-12.56-13.73-16.09.78-16.11-12.93-4.14-25.11-21.97-.31-.45,3.74-2.77,3.92-3.92.41-2.6-4.39-10.71-3.14-15.69-8.78-6.89-22.5-24.69-29.03-23.54,3.28-4.81-2.16-9.65-2.35-10.2-.3-.84,2.6-3.95-7.85-14.91-1.43-2.22,1.88-3.33.78-6.28-.45-1.22-13.08-10.14-3.14-21.97-5.89.24-5.57-17.26-12.55-23.54,4.44.68,1.21-19.26-2.35-18.83,4.35-9.59-.28-14.35-.78-16.09l-.78-2.35c-.1-.69-.82-10.81-.78-11.38.11-1.91,3.91-3.2,1.57-7.06,10.71-3.98-9.88-14.63,0-24.32-.16-6.49-3.18-.59-2.35-9.81,2.2.41,1.47-1.51,1.57-1.57.5-.32,1.15,1.36,1.57.39,1.6-15.5-10.91-23.04.78-40.02-5.73-9.21-2.59-12.52-2.35-21.19,0-.33-1.61-.88-1.57-2.35,0-.23,2.61-3.41,2.35-3.92-.87-1.71-4.34,2.46-3.92-1.57.33-3.17,4.6,3.98,3.92-5.1v-2.35c.75-4.27,5.33-15.31,0-15.3-1.21-2.26,6.75-2.17-.78-7.06-1.84-14.77,2.04-11.97,4.71-17.65,1.87.22,1.41-.32,1.57-1.57.22-1.73.36-5.48-.78-6.67,3.56-.48,1.87-10.05.39-10.59-.12-.04-1.49,1.65-1.57,1.57-.79-.79-.13-1.87-.39-2.35l.78-3.14c12.73-9.29,4.25-5.74,6.28-10.59.21-.51,7.78-1.93,0-7.85,1.51.8,1.63-11.14,1.57-11.77-.22-2.15-3.93,1.96-3.92-.78,0-2.35,3.67-3.32,5.88-2.75,1.81-4.72,14-20.58,5.88-20.79,2.46-.26,2.67-3.04,7.85-7.45.23-.19,4.89.34.78-2.35,1.02-1.52,2.25-2.34,3.92-4.71.3-.42,2.33-.42.78-2.35.46-.41,7.53-2.68,6.28-6.67-.28-.9-3.03,1.03-3.14-.78-.03-.46,8.04-3.11,5.49-6.28-2.51-3.13-14.21,5.24-13.34.78.08-.42,4.57-5.15,6.67-1.96,9.06-8.61,19.14-18.78,26.68-29.82,13.93,2.33,18.4-9.72,19.22-10.59,8.76-9.35,10.5-6.55,7.85-13.73v-1.57c5.17-5.13,10.74-1.84,13.34-11.77,2.54,1.73,1.07-.71,1.57-1.57,3.35-5.75,13.84-8.84,15.69-12.55,3.7,1.48,1.51-1.39,1.57-1.57,3.31-10.42,7.58-9.97,3.92-16.87,7.75-4.62,22.02-7.94,22.75-18.83,8.14-1.79,6.72-5.53,7.06-5.88,1.89,1.25,2.74.06,1.57-1.57.13-.1,1.31.43,2.75-1.57,4.94,8.03,5.05,2.27,5.49,2.35.37.07,5.3,6.03,1.18,4.32,1.44,12.74,11.04-.72,11.77-5.1.65-3.9.25-3.25-3.14-2.35-.11-6.59,8.22-1.44,9.02-1.57.33-.05.13-1.4,1.96-2.35h3.14c.68.51,1.74,1.01,2.35,1.57.17.16.96,5.71,1.57.39.06-.48-.93-.44-1.57-.39,4.11-2.26,11.23-6.26,11.38-3.92,4.33-4.96,8.74-11.01,13.73-11.77,1.3-.2,2.65.69,2.35-1.57,10.72-2.84,19.35,2.69,15.69-9.02,5.67-.7,2.98-6.1,5.1-6.67,3.99-1.07-.27,2.94,0,3.14.77.57,12.9,6.74,17.26,6.28.87-.09,8.91-3.74,9.02-4.32.3-1.55-6.16-3.56-1.18-6.67,3.72-2.32,8.59,2.85,10.98-2.35-.04,8.8,26.17.09,28.25,1.57,1.06.75-.8,3.8,2.35,3.14,6.24-2.19,14.62-2.2,21.19-.78,20-8.24,15.27-.68,16.48-.78,1.03-.09,16.39-8.71,14.52,2.75,6.41.34,3.11-4.46,12.95-3.53.34.03,6.06,5.5,1.96-.39,8.04-1.44,5.74-7.46,7.85-4.71.18.23-.28,4.57,2.75,5.1,2.56.45,4.06-1.6,4.32-3.92Z"/>
          <g>
            <path class="cls-11" d="M290.52-236.55c-2.47,5.52,2.54,4.66,7.45,5.49.88.15,1.27,2.32,1.57,2.35.23.02,2.86-2.47,3.92-2.35,5.94.63,9.85,4.92,2.35,2.35-6.1,1.4,13.72,8.31,17.26,7.06.79-.28,1.08-1.54,1.18-1.57.25-.08,1.77-3.53,3.92.39.81,1.47-5.39,4.63,13.73,8.24,4.56,4.15,13.14,5.59,18.05,8.63.29.18,1.34,3.33,3.92,5.49.17.14,1.6-2.33,4.32.39.41.41,1.57,5.01,2.75,5.88,2.8,2.09,6.7-.14,7.06,0,6.14,2.28,60.58,44.69,68.26,51.79,21.42,19.77,62.22,76.09,71.01,103.18.19.57-2.68.47,3.14,10.98-3.05,11.15,5.87,23.3,1.18,4.32,7.36,10.29,2.98,27.48,9.02,35.7-.46,17.25,1.33,5.11,2.75,5.88,2.38,11.16,11.18,6.15,7.45,24.72,6.45.04,3.38,2.44,7.06,3.14-12.95,7.95,3.73,10.85-3.14,11.77,3.89,17.97-.59,14.55-.78,17.26-.02.31,1.7,5.72,1.96,5.88.31.19,3.65-4.96,5.1.39,1.31,4.82-4.41,10.87-.78,15.69-1.29,2.4-5.37,10.74-5.49,11.77-1.22,10.56,6.42,2.04,2.35,14.12,9.63,3.86.25,9.96,0,10.98-.22.92.28,8.97-2.35,18.83q2.75,5.1,5.49,10.2c-6.52,6.44-8.18,17.63-12.55,23.93-.32.46-7.85,2.38-.78,7.85-1.35,6.19-1.78,6.83,3.14,11.38-12.88.2-2.78,6.12-3.14,9.42-.06.56-6.21,9.34-6.67,9.02-.91-.62.12-2.62-.78-3.14-.57-.33-4.75,7.69-1.96,12.16-5.97,1.08-1.01,12.91-8.63,14.91q-11.38,23.93-22.75,47.86c-16.2,12.7-23.97,36.14-30.99,41.19-1.6,1.15-4.42.6-4.71.78-5.15,3.3-10.18,7.42-15.69,10.2q-15.69,14.12-31.39,28.25c-2.5,1.44-19.85,5.07-23.54,5.49-12.44,1.42-90.95,2.14-112.6,2.35-3.14.03-6.28-.03-9.42,0l-.78-3.14c5.22.03,11.27,1.05,15.3-2.35,24.56-1.59,41.78-1.45,62.77-15.69,6.64-4.5,9.78-9.59,12.55-11.77.13-.1,2.27-.1,3.14-.78,2.51-1.98,1.56-3.44,3.14-4.71.78-.63,7.51-.53,14.91-12.55,10.07-5.02,26.99-22.63,34.92-31.78,2.74-3.16,20.13-25.47,21.97-28.25,4.94-7.47,23.94-43.28,27.46-51.79,4.55-10.99,6.49-23,11.77-33.74-.17-12.56,6.4-30.42,7.06-36.88.16-1.56.06-25.19,0-31.39-.4-38.96-3.33-59.6-14.12-96.51-.12-.43,1.55-2,0-6.28l-20.4-48.65c-15.18-25.44-33.96-48.22-54.53-69.44-45.93-31.41-70.52-54.92-127.11-67.48-48.1-10.67-97.96-11.91-145.94,0-30.44,7.56-60.63,20.96-87.09,37.66C6.47-104.78-20.44-90.01-42.16-58.05c-.39.58-.94,5.21-7.06,10.2.34,7.49-7.52,12.94-10.98,18.83-4.93,8.38-8.94,17.33-14.91,25.11-6.11,18.81-16.99,48.99-19.62,67.48-3.09,21.78-1.85,43.33-.78,65.12.03.55-1.89,6.52-1.57,10.98.05.69,2.89,7.56,3.92,13.34.4,2.23-1.08,3.23-.78,4.71,4.12,20.67,12.65,33.2,16.48,43.15,1.67,4.34,3.03,8.9,4.71,13.34.55,1.46-2.11.89-1.57,2.35,8.56,23.08,18.96,41.01,31.39,61.99,1.71,2.89,1.37,6.24,2.35,7.85,4.92,8.01,12.91,13.13,16.48,21.97,8.58,9.79,32,30.1,44.33,33.35,9.66,9.47,15.82,16.36,29.82,21.19,5.87,7.99,15.6,8.79,24.32,11.77.29.1,1.64,2.2,4.71,3.14,1.63.5,19.44,1.27,13.73,4.71-12.43-.92-27.84,3.09-30.99-.78-32.53-.93-56.6,2.13-90.23-3.14-3.59-.56-2.34,1.85-3.92,1.57-6.29-5.76-13.99-9.62-19.22-14.52-.27-.25.27-2.1,0-2.35-23.42-22.04-47.18-44.31-63.56-72.19-3.32-5.65-5.61-12.96-7.06-15.69-2.89-5.45-5.29-6.66-5.49-7.06-.92-1.84-1.98-7.66-3.14-10.2-.37-.81-1.99.03-2.35-.78-.33-.73.09-4.49,0-4.71-.17-.39-4.19-5.68-4.71-7.06-1.76-4.65-1.4-10.3-5.49-14.12-1.36-15.42-8.1-29.72-10.2-45.12,3.39-6.67-1.6-11.98-2.35-17.65-.9-6.75,4.36-9.5-2.35-10.59.93-1.75,2.95-2.7,3.14-5.1-3.24-4.72-.81-9.44-3.92-13.34,3.9-2.15.65-6.75-1.57-9.42,3.49-16.82.4-34.14,3.92-51q-.78-12.55-1.57-25.11c.69-.52,3.85-4.03,3.92-4.32.03-.12,1.15.35.78-2.35v-12.16c-9.56-1.92-2.82-7.83-2.35-12.55.01-.14-1.59-2.21-1.57-2.35.04-.26,1.63-.18,2.35-4.71.14-.86-2.57-7.69,2.35-7.85-6.22-6.89,2.8-4.89,3.14-5.49,3.57-6.39-2.2-16.61,4.71-17.26-.46-7.46,9.01-19.18,12.55-26.68.3-.64-.3-2.5,0-3.14.4-.84,1.95.05,2.35-.78.35-.73-.35-3.21,0-3.92,4.62-9.32,9.3-18.65,13.34-28.25,13.13-14.89,24.86-30.7,37.66-45.9.72,3.9-3.65,7.54-1.96,8.63,4.26,2.77,38.37-34.66,39.62-40.41,7.9-5.32,14.17-12.61,21.19-19.22,7.38-6.96,16.66-11.83,21.58-21.19,7.14-5.09,16.4-5.38,22.75-10.98,8.27,2.69,10.56-2.38,10.98.78.37-.52,2.17-3.06,2.35-3.14,7.21-2.94,16.3-5.91,21.19-11.77,3.03-1.06,1.11,4.74,3.92,3.14,1.68-.96,4.05-7.55,4.71-9.42,5.66,8.04,11.09-1.18,11.77-1.57,1.37-.77,7.33,6.12,29.03-7.85,5.71,3.56,12.35-1.62,28.25-2.35.66-.03-2.65,2.47,11.77.78.75-.12.04-2.25.78-2.35,10.34-1.45,23.61,1.12,32.17-4.71,11.32,8.43,38.25-4.47,45.51,6.28-1.5-6.67,25.28,5.43,14.52-5.1l1.18-1.18c3.03,3.1,6.56,1.24,10.98,1.57.33.02,1.24,1.55,1.57,1.57.26.02,1.3-1.58,1.57-1.57,4.03.19,5.95,1.55,6.28,1.57,6.04.34,13.43-1.74,14.12-1.57,1,.24-1.31,2.93,3.53,1.96.29,10.37,3.81,2.85,4.32,2.75,1.45-.3,2.17,3.09,2.35,3.14,1.52.43,2.17-1.02,3.53-.78Z"/>
            <g>
              <path class="cls-17" d="M266.99,380.96c-54.8-.31-82.97-38.16-114.56-50.22-31.51-12.03-56.84-4.46-83.17,14.12l-.78-3.92c76.98-64.78,110.63,8.58,161.24,25.11,65.85,21.5,127.57-19.46,169.87-66.69,11.83-13.21,22.74-26.97,32.17-41.98-68.34-10.1-89.96,54.43-158.89,58.46-61.27,3.58-77.19-33.48-112.99-47.86-57.5-23.11-78.47,13.57-103.57,29.03-19.23,11.85-49.48,20.14-69.05,6.28,10,13.73,24.52,24.62,38.05,34.52,2.6,1.9,5.21,3.66,7.85,5.49,1.65,1.14,3.82,2.02,5.49,3.14,4.42,2.94,8.78,5.9,13.34,8.63.17.1.52.83,3.14,2.35.2.11.59-.11.78,0,.17.1-.15.49,3.14,2.35,4.72,2.67,9.24,5.45,14.12,7.85,20.37,10,37.13,14.34,58.06,21.19-2.36,2.02-7.97-.98-10.98-1.57-4.33-.85-8.98-1.66-13.34-2.35-4.72-.75-9.36-2-14.12-2.35,5.71-3.44-12.11-4.21-13.73-4.71-3.07-.94-4.42-3.04-4.71-3.14-8.72-2.98-18.46-3.78-24.32-11.77-14-4.82-20.15-11.72-29.82-21.19-12.34-3.24-35.75-23.56-44.33-33.35-3.56-8.84-11.56-13.96-16.48-21.97-.99-1.61-.64-4.96-2.35-7.85-12.43-20.97-22.82-38.91-31.39-61.99-.54-1.47,2.12-.89,1.57-2.35-1.68-4.44-3.04-9-4.71-13.34-3.83-9.96-12.36-22.48-16.48-43.15-.3-1.48,1.18-2.48.78-4.71-1.03-5.78-3.87-12.65-3.92-13.34-.32-4.46,1.6-10.43,1.57-10.98-1.07-21.79-2.31-43.34.78-65.12,2.63-18.49,13.51-48.67,19.62-67.48,5.96-7.78,9.98-16.73,14.91-25.11,3.47-5.89,11.32-11.34,10.98-18.83,6.12-4.99,6.67-9.62,7.06-10.2,21.72-31.96,48.63-46.74,74.93-73.36,26.46-16.71,56.65-30.11,87.09-37.66,47.98-11.91,97.84-10.67,145.94,0,56.6,12.56,81.18,36.07,127.11,67.48,20.57,21.22,39.35,44,54.53,69.44l20.4,48.65c1.55,4.28-.12,5.85,0,6.28,10.79,36.91,13.72,57.55,14.12,96.51.06,6.19.16,29.82,0,31.39-.67,6.46-7.23,24.31-7.06,36.88-5.28,10.74-7.22,22.75-11.77,33.74-3.52,8.51-22.52,44.31-27.46,51.79-1.84,2.78-19.23,25.09-21.97,28.25-7.92,9.15-24.85,26.75-34.92,31.78-7.4,12.02-14.13,11.92-14.91,12.55-1.58,1.27-.63,2.72-3.14,4.71-.86.68-3.01.68-3.14.78-2.77,2.18-5.92,7.27-12.55,11.77-20.99,14.24-38.21,14.11-62.77,15.69-4.03,3.4-10.08,2.38-15.3,2.35Z"/>
              <g>
                <path class="cls-6" d="M-77.47,75.73c6.63,11.82,9.43,16.71,18.05,27.46,24.47,30.55,55.68,49.27,96.12,38.45,41.71-11.17,58.54-61.95,122.4-45.51,39.38,10.14,53.37,57.26,116.91,54.92,61.38-2.26,83.78-58.57,135.74-67.48,21.06-3.61,46.82-1.09,60.81,16.87,1.68,16.94-.29,33.06-2.35,49.82-2.65-2.82-4.2-6.78-7.06-9.42.04-4.77-3.51-7.21-3.92-7.85-16.69-25.68-40.04-29.78-68.26-21.19-24.6,7.49-31.48,19.31-50.22,32.17-33.86,23.24-80.83,30.5-118.48,10.98-24.11-12.5-41.77-42.81-82.39-44.72-3.29-.15-7.76-.24-10.98,0-35.57,2.68-48.6,25.63-68.26,37.66-32.58,19.93-73.8,16.5-106.71-.78-6.71-3.53-12.68-9.02-19.62-12.55-7.02-3.58-13.9-7.36-21.97-7.85-.96-21.22-.04-40.95,3.14-61.99,2.24,2.85,5.28,7.81,7.06,10.98Z"/>
                <path class="cls-18" d="M430.97,1.98c4.53.81,8.84,2.21,13.34,3.14,2.79,2.53,7.04,3.5,10.2,5.49,8.84,24.55,11.6,38.62,14.91,64.34h-.78c-2.5-4.46-8.9-12.65-12.55-15.69.13-5.59-5.22-9.57-8.63-13.34-7.15-7.88-14.51-13.98-25.11-16.48-3.22-.76-8.45-1.46-11.77-1.57-42.94-1.45-57.23,29.96-83.17,45.51-15.96,9.57-36.36,15.84-54.92,16.48-19.2.66-39.15-3.57-55.71-13.34-22.68-13.39-32.65-34.07-68.26-37.66-38.26-3.86-53.32,10.75-81.6,30.6,4.5-5.4-4.83,1.86-14.52,4.71-23.44,6.89-50.62,5.06-73.76-2.35-13.57-4.35-26.99-13.64-39.62-17.26-5.88-3.37-13.99-4.57-20.4-1.57,4.12-21.11,6.24-30.56,14.12-51,1.89-.06,3.97,5.95,7.06,10.98,2.29,3.74,5.24,8.28,7.85,11.77C-28.82,56.19,4.31,72.28,43.76,61.61c37.24-10.07,56.48-52.66,100.43-48.65,46.77,4.27,58.97,66.44,130.25,61.2,73.61-5.41,88.93-84.3,156.53-72.19Z"/>
                <path class="cls-5" d="M463.14,140.86c2.87,2.64,4.41,6.59,7.06,9.42-.13,1.02.14,2.12,0,3.14-3.14-2.5-6.05-4.82-9.42-7.06-7.93-5.27-13.93-7.53-23.54-8.63-77.5-8.9-97.9,81.87-183.21,67.48-56.1-9.47-76.93-63.26-134.17-54.92-46.37,6.75-64.35,59.48-125.54,50.22-34.22-5.18-53.28-34.5-69.44-61.99-1.05-3.7-9.04,3.73-10.98,6.28-.72-6.29-1.28-11.69-1.57-18.05,8.07.49,14.95,4.27,21.97,7.85-1.87,4.31,9.43,12.6,14.12,16.48,25.68,21.22,55.17,32.61,88.27,21.97,39.62-12.74,73.14-74.95,149.08-29.03,11.64,7.04,23.71,18.69,36.09,25.11,27.99,14.51,65.66,16.9,95.33,6.28,32.9-11.77,46.92-44.82,89.45-50.22,18.09-2.29,42.65,2.94,56.49,15.69Z"/>
                <path class="cls-6" d="M463.93,164.4c1.23,1.15,2.34,2.42,3.92,3.14-4.07,21.35-10.52,41.08-20.4,60.42-1.12-1.38-2.51-2.14-3.92-3.14-.77-2.42,1.66-4.58,1.57-5.88-.15-2.12-2.89-4.43-3.92-5.88-9.38-13.23-28.08-20.77-43.94-20.4-25.62.6-40.14,17.66-51,25.11-31.41,21.55-48.58,32.01-89.84,28.25-58.15-5.31-73.91-69.75-140.84-55.71-30.32,6.36-40.79,24.2-56.49,35.31-34.9,24.69-78.95,22.8-112.6-3.14-6.26-4.82-13.12-13.96-19.22-17.26-5.65-15.67-8.18-29.22-10.98-45.51l.78-.78c2.09,6.3,5.84,11.76,9.42,17.26,22.13,34.08,48.3,55.31,91.41,49.43,56.15-7.65,68.71-68.6,135.74-51.79,41.78,10.48,55.75,61.43,123.19,57.28,78.87-4.85,103.61-102.5,187.14-66.69Z"/>
                <path class="cls-5" d="M456.08,59.26c3.65,3.04,10.05,11.23,12.55,15.69q-.78.78-1.57,1.57c-1-.83-5.75-3.08-7.06-3.92-27.37-17.51-55.55-16.84-83.56-.78-29.49,16.9-54.83,61.19-116.91,56.49-51.43-3.89-63.6-48.78-113.77-53.36-55.37-5.05-67.92,31.72-102,42.37-72.24,22.58-104.6-50.74-110.24-54.53-1.7-1.15-4.37-1.61-6.28-1.18-6.97,1.58-.13,13.05-4.71,14.12-1.78-3.17-4.82-8.14-7.06-10.98,1.43-9.46,3.02-11.17,3.14-11.77,6.41-3.01,14.52-1.8,20.4,1.57.97.55,7.18,7.17,17.26,14.12,14.3,9.86,27.98,20.46,44.72,25.89-5.33-.12-10.76-.27-16.09,0,20.67,7.85,35.98,8.49,56.89,1.57,11.44-3.79,17.35-8.8,27.46-14.12,19.29-10.15,33.26-20.74,55.71-24.32,66.09-10.56,77.02,40.69,133.78,45.51,68.29,5.8,89.73-38.57,123.97-51.79,23.64-9.12,53.03-9.09,73.36,7.85Z"/>
                <path class="cls-18" d="M405.87-74.13c18.46,20.17,30.89,43.35,41.59,68.26-2.14-1.28-3.75-2.95-5.49-4.71-6.17-6.22-8.42-7.58-14.91-12.55-4.55-3.49-7.72-9.54-20.4-12.55-15.86-3.77-30.05-.84-43.94,7.06-2.21,1.26-7.53,4.77-9.42,6.28-1.36-1.02-2.18-.74-3.53,0-3.21,1.75-20.13,17.28-37.27,25.89-57.7,29.01-96.06-1.86-101.22-3.14-19.08-15.97-31.83-30.95-58.06-33.74-42.51-4.53-55.84,19.54-86.31,40.02.81-3.46-8.68,2.86-16.09,4.71C30.29,16.51,5.35,15.94-14.7,9.04-21.16,6.81-28.75,2.6-35.1-.38c-8.56-4.02-16.6-9.73-25.89-12.55,5.03-10.98,10.76-21.24,17.26-31.39,1.5-.07,4.53,3.5,5.49,4.71,3.29,4.16,5.6,7.19,9.42,10.98.81.81,1.49,1.55,2.35,2.35C-6.95-8.03,12.56-.26,39.83-2.73c45.54-4.12,57.16-53.41,111.42-47.86,38.58,3.95,56.04,47.52,101.22,51.79,66.77,6.3,88.15-47.9,122.8-65.91,9.48-4.93,20-8.26,30.6-9.42Z"/>
                <path class="cls-12" d="M460.79,146.35c1.77,5.56,2.48,23.85,8.63,14.91-.11.69-.99,3.24-1.57,6.28-1.59-.72-2.69-1.99-3.92-3.14-8.33-7.77-20.16-13.04-31.78-14.12-72.39-6.72-105.37,101.43-198.51,64.34-43.62-17.37-77.14-82.98-153.79-32.95-9.81,6.4-19.98,16.9-30.6,22.75-20.17,11.12-23.02,6.88-24.32,7.06-8.96,1.22-15.83,3.46-29.82,2.35-21.75-1.72-43.07-14.96-59.24-29.03-3.51-6.3.91-1.36,4.71-7.85,11.04,13.95,32.95,29.74,50.61,32.95,51.97,9.47,80.75-35.41,112.2-47.08,62.34-23.13,96.09,33.04,131.82,47.08,80.15,31.48,124.76-56.43,182.04-69.05,11.42-2.52,20.44-.44,20.01-3.14,9.61,1.1,15.61,3.36,23.54,8.63Z"/>
                <path class="cls-12" d="M445.1,67.89c-1.98,5.7.86,5.81,1.57,10.2-59.27-18.04-102.22,40.32-129.86,52.57-22.12,9.8-61.78,11.27-84.74,3.14-20.9-7.4-43.71-37.04-72.19-44.72-58.53-15.8-84.8,30.12-116.91,42.37-37.64,14.36-70.62-.62-97.69-27.46,5.14-1.77,3.15-5.15,5.49-4.71C-27.56,122.97-.67,137.02,31.99,129.09c44.89-10.91,64.59-64.29,125.54-47.86,44.58,12.02,60.41,60.29,121.62,54.92,62.95-5.52,97.23-83.73,165.95-68.26Z"/>
                <path class="cls-3" d="M297.59,174.6c-26.73,3.42-54.21-.08-77.68-13.34-.44-4.34,3.25,1.52,2.35-6.28,37.65,19.51,84.62,12.26,118.48-10.98-6.31,9.53-23.86,22.37-34.13,26.68-2.74,1.15-8.93,1.57-9.02,3.92Z"/>
                <path class="cls-15" d="M390.96,111.83c7.5,2.04,19.1-1.04,24.32,4.71-3.43.05-11.74,2.16-15.69,3.14-42.04,10.38-50.32,39.79-85.53,51-5,1.59-11.29,3.26-16.48,3.92.09-2.35,6.28-2.77,9.02-3.92,10.27-4.31,27.82-17.15,34.13-26.68,18.74-12.86,25.62-24.68,50.22-32.17Z"/>
                <path class="cls-3" d="M-46.08,147.13c32.91,17.29,74.13,20.72,106.71.78l4.71,3.14c-4.37,2.85-8.25,6.87-12.95,9.42-33.47,18.17-71.66,12.48-100.83-10.98.71-.49.42-2.93,2.35-2.35Z"/>
                <path class="cls-5" d="M222.26,154.98c.9,7.79-2.8,1.93-2.35,6.28-26.47-14.95-39.5-34.28-72.97-38.45-3.85-3.38-.89-4.46-2.75-6.28-2.87-2.82-11.22.78-4.32-6.28,40.62,1.91,58.27,32.23,82.39,44.72Z"/>
                <path class="cls-2" d="M128.89,110.26c-.25,3.78,4.86,1.15,7.06,4.32,1.08,1.55-.47,4.82,1.57,7.45-35.5-1.01-45.63,11.74-72.19,29.03l-4.71-3.14c19.67-12.03,32.7-34.98,68.26-37.66Z"/>
                <path class="cls-7" d="M415.28,116.53c14.26-.19,33.47,6.29,43.94,16.48.42.64,3.96,3.08,3.92,7.85-13.85-12.75-38.41-17.99-56.49-15.69-2.75-1.25-6.12-2.24-7.06-5.49,3.95-.98,12.26-3.09,15.69-3.14Z"/>
                <path class="cls-5" d="M459.22,133.01c-10.47-10.18-29.68-16.67-43.94-16.48-5.22-5.75-16.83-2.67-24.32-4.71,28.22-8.6,51.57-4.5,68.26,21.19Z"/>
                <path class="cls-2" d="M139.87,110.26c-6.9,7.06,1.44,3.46,4.32,6.28,1.86,1.82-1.1,2.89,2.75,6.28-3.3-.41-6.07-.69-9.42-.78-2.04-2.63-.49-5.9-1.57-7.45-2.2-3.16-7.31-.54-7.06-4.32,3.23-.24,7.69-.15,10.98,0Z"/>
                <path class="cls-13" d="M430.97,1.98c-67.61-12.11-82.93,66.77-156.53,72.19-71.28,5.24-83.48-56.93-130.25-61.2-43.95-4.01-63.19,38.58-100.43,48.65C4.31,72.28-28.82,56.19-52.36,24.73c7.26,3.38,12.39,9.56,18.83,14.12,22.4,15.88,44.36,22.32,71.79,16.48,15.56-3.31,26.88-11.95,39.62-20.4,16.27-10.79,31.81-26.29,52.57-28.25,53.76-5.07,73.19,53.46,120.44,58.06,77.48,7.54,98.07-48.15,135.74-63.56,12.55-5.13,34.08-9.62,44.33.78Z"/>
                <path class="cls-12" d="M435.68-12.93c-2.01,3.02,6.39,16.02,8.63,18.05-4.49-.93-8.81-2.33-13.34-3.14-10.26-10.4-31.78-5.92-44.33-.78-37.67,15.4-58.26,71.1-135.74,63.56C203.65,60.15,184.21,1.61,130.46,6.68c1.53-4.49-1.66-5.55-1.57-5.88.12-.43,7.79-3.48,8.24-3.53,11.68-1.25,28.99,6.93,38.84,13.34,31.79,20.68,45.84,53.46,99.26,49.43,60.62-4.57,85.49-67.49,131.03-72.97,10.02-1.2,24.18,2.33,26.29-.78.25.08,1.06-.08,3.14.78Z"/>
                <path class="cls-7" d="M447.45,45.92c3.42,3.76,8.76,7.75,8.63,13.34-20.33-16.93-49.73-16.97-73.36-7.85-34.24,13.21-55.68,57.59-123.97,51.79-56.76-4.82-67.69-56.07-133.78-45.51.75-3.05,3.46.23,1.57-6.28,9.25-1.21,18.2-1.07,27.46,0,29.03,3.37,37.91,16.62,59.63,29.82,23.99,14.58,43.89,16.99,72.19,14.91,16.83-1.24,25.79-5.15,40.02-13.34,26.99-15.53,45.47-40.99,79.25-44.72,14.83-1.64,28.93,1.54,42.37,7.85Z"/>
                <path class="cls-13" d="M148.51,38.85c.2,4.03,5.61,5.78,5.49,12.55-9.26-1.07-18.21-1.21-27.46,0-22.32,2.91-41.23,15.33-57.28,30.6-10.11,5.32-16.02,10.34-27.46,14.12q.78-4.71,1.57-9.42c.51-.26,1.07-.51,1.57-.78,10.48-5.64,18.55-14.07,21.97-16.48,28.28-19.86,43.34-34.46,81.6-30.6Z"/>
                <path class="cls-4" d="M66.9,69.46c-3.42,2.4-11.49,10.83-21.97,16.48-22.07,4.37-39.73,3.99-60.81-4.71-12.35-5.1-25.52-18.08-27.85-12.55-10.08-6.95-16.29-13.57-17.26-14.12,12.64,3.62,26.05,12.91,39.62,17.26,23.14,7.41,50.32,9.25,73.76,2.35,9.68-2.85,19.02-10.11,14.52-4.71Z"/>
                <path class="cls-2" d="M410.57,27.87q.39,3.53.78,7.06c-2.05.52-6.08,1.39-6.28,3.14-33.78,3.74-52.26,29.2-79.25,44.72-2.46-1.83,1.73-6.19,1.57-9.42,25.94-15.55,40.23-46.96,83.17-45.51Z"/>
                <path class="cls-5" d="M216.77,76.52c-3.2.2-3.52,1.81-3.14,4.71-21.72-13.2-30.61-26.45-59.63-29.82.12-6.77-5.3-8.52-5.49-12.55,35.62,3.6,45.58,24.27,68.26,37.66Z"/>
                <path class="cls-5" d="M325.83,82.79c-14.23,8.18-23.19,12.1-40.02,13.34-2.34-2.24-8.58.36-10.59-.78-1.5-.85.49-2.65.39-2.75-.69-.72-3.34.14-3.14-2.75,18.56-.64,38.96-6.91,54.92-16.48.16,3.22-4.03,7.58-1.57,9.42Z"/>
                <path class="cls-3" d="M216.77,76.52c16.56,9.77,36.51,14,55.71,13.34-.2,2.89,2.45,2.02,3.14,2.75.1.1-1.89,1.9-.39,2.75,2.01,1.14,8.25-1.46,10.59.78-28.3,2.08-48.2-.33-72.19-14.91-.38-2.9-.06-4.51,3.14-4.71Z"/>
                <path class="cls-17" d="M437.25,137.72c.44,2.7-8.59.62-20.01,3.14-57.27,12.62-101.88,100.53-182.04,69.05-35.73-14.03-69.47-70.21-131.82-47.08-31.45,11.67-60.23,56.55-112.2,47.08-17.66-3.22-39.57-19-50.61-32.95-2.32-2.93-5.2-7.65-7.06-10.98-3.8-6.82-10.4-20.1-8.63-27.46,16.16,27.49,35.22,56.8,69.44,61.99,61.19,9.27,79.18-43.47,125.54-50.22,57.25-8.33,78.07,45.46,134.17,54.92,85.31,14.39,105.71-76.38,183.21-67.48Z"/>
                <path class="cls-7" d="M137.52,122.03c3.35.09,6.11.37,9.42.78,33.47,4.17,46.5,23.5,72.97,38.45,23.47,13.26,50.95,16.76,77.68,13.34,5.18-.66,11.48-2.33,16.48-3.92q1.57,2.35,3.14,4.71c-29.67,10.62-67.34,8.23-95.33-6.28-12.39-6.42-24.45-18.07-36.09-25.11-75.94-45.92-109.46,16.29-149.08,29.03-33.1,10.64-62.59-.75-88.27-21.97.61-2.25,2.85-1.37,3.14-1.57,29.16,23.47,67.36,29.16,100.83,10.98,4.7-2.55,8.57-6.57,12.95-9.42,26.56-17.29,36.69-30.04,72.19-29.03Z"/>
                <path class="cls-9" d="M399.59,119.67c.94,3.25,4.31,4.24,7.06,5.49-42.53,5.4-56.55,38.44-89.45,50.22q-1.57-2.35-3.14-4.71c35.21-11.21,43.48-40.62,85.53-51Z"/>
                <path class="cls-17" d="M463.93,164.4c-83.52-35.81-108.27,61.84-187.14,66.69-67.44,4.15-81.41-46.79-123.19-57.28-67.03-16.82-79.59,44.13-135.74,51.79-43.11,5.88-69.28-15.35-91.41-49.43,2.04.2,4.26,4.14,9.42,8.63,16.17,14.07,37.49,27.31,59.24,29.03,13.98,1.11,20.85-1.13,29.82-2.35,1.31-.18,4.15,4.06,24.32-7.06,10.62-5.85,20.79-16.35,30.6-22.75,76.65-50.03,110.17,15.59,153.79,32.95,93.15,37.09,126.12-71.06,198.51-64.34,11.62,1.08,23.44,6.35,31.78,14.12Z"/>
                <path class="cls-17" d="M460.01,72.59c-5.39,0-9.78-3.55-14.91-4.71-68.72-15.47-103,62.75-165.95,68.26-61.2,5.36-77.03-42.91-121.62-54.92-60.95-16.43-80.65,36.96-125.54,47.86-32.66,7.93-59.55-6.11-81.21-29.82-9.31-10.19-20.26-25.33-23.54-37.66,1.91-.43,4.57.03,6.28,1.18,5.64,3.8,38.01,77.11,110.24,54.53,34.08-10.65,46.63-47.42,102-42.37,50.17,4.58,62.34,49.47,113.77,53.36,62.08,4.69,87.42-39.59,116.91-56.49,28.01-16.06,56.19-16.72,83.56.78Z"/>
                <path class="cls-9" d="M44.93,85.93c-.5.27-1.06.52-1.57.78-17.27,8.79-23.67,8.25-42.37,7.85-16.74-5.44-30.43-16.03-44.72-25.89,2.33-5.53,15.5,7.46,27.85,12.55,21.08,8.7,38.74,9.07,60.81,4.71Z"/>
                <path class="cls-14" d="M41.8,96.13c-20.9,6.92-36.22,6.28-56.89-1.57,5.33-.27,10.76-.12,16.09,0,18.7.41,25.1.95,42.37-7.85q-.78,4.71-1.57,9.42Z"/>
                <path class="cls-9" d="M126.54,51.41c1.89,6.5-.82,3.23-1.57,6.28-22.45,3.59-36.42,14.17-55.71,24.32,16.05-15.27,34.96-27.69,57.28-30.6Z"/>
                <path class="cls-5" d="M427.05-23.13c6.49,4.97,8.74,6.34,14.91,12.55-2.41.19-4.22-1.5-6.28-2.35-2.08-.86-2.89-.7-3.14-.78-62.2-20.74-83.3,49.91-140.84,65.12-64.03,16.93-85.02-25.83-114.16-43.94C103-38.83,84.15,46.83,18.26,45.92c-25.78-.36-42.34-12.41-58.06-31.39,3.66-1.45,8.03-1.23,11.77-2.35.19-.06,2.99-1.84,3.14-2.35C-.16,28.82,30.69,38.41,61.41,28.65c20.18-6.41,23.19-18.14,35.7-29.03,20.43-17.78,52.59-22.12,77.29-11.77,24.4,10.23,47.03,45.69,98.08,43.94-3.37,1.96,11.74,2.14,17.65,1.57,30.2-2.93,42.94-24.78,52.96-33.74,24-21.47,51.79-35.85,83.96-22.75Z"/>
                <path class="cls-17" d="M375.26-64.72C340.62-46.71,319.23,7.49,252.47,1.19c-45.18-4.26-62.63-47.84-101.22-51.79C96.99-56.14,85.38-6.85,39.83-2.73,12.56-.26-6.95-8.03-26.47-26.27c.17-6.27,17.45-.86,22.36.78,2.27.76,3.03,4.91,7.06,1.57,6.08,10.12,39.97,7.7,50.22,3.92,2.74-1.27,1.82-2.3,1.96-2.35,42.29-17.15,70.17-50.94,119.66-26.68C208.85-32.32,221.52-.12,272.87-6.65c42.33-5.39,55.57-30.9,78.46-47.08,5.7-4.03,12.83-6.34,18.44-10.2l5.49-.78Z"/>
                <path class="cls-13" d="M153.21-33.33c-5.09,2.5-13.6-1.66-12.55,3.14-14.2.67-8.31.76-13.34,7.85C93.53-14.23,83.85,12.97,61.41,21.59c-9.45,3.63-21.39,4.5-31.39,3.92,13.42-3.86,25.42-11.13,36.88-18.83,30.47-20.47,43.8-44.54,86.31-40.02Z"/>
                <path class="cls-4" d="M211.28.41c5.16,1.28,43.52,32.15,101.22,3.14,2.06,3.14,8.18,3,4.71,7.85-.85,1.19-20.68,9.12-25.5,10.2-18.79,4.21-44.68,3.39-62.77-3.92-9.13-3.69-15.07-9.94-22.36-14.91,1.4-2.29,2.34-2.94,4.71-2.35Z"/>
                <path class="cls-14" d="M366.63-22.35c-8.86,6.01-17.61,12.97-23.54,21.97-10.02,8.96-22.76,30.81-52.96,33.74-5.91.57-21.03.4-17.65-1.57,16.75-.58,32.46-9.61,45.51-19.62,15.95-12.23,26.88-27.78,35.31-34.52,1.89-1.51,7.21-5.02,9.42-6.28-2.18,5.2,2.11,2.49,3.92,6.28Z"/>
                <path class="cls-9" d="M-14.7,9.04c-2.84,2.16,17.28,10.39,21.58,11.77,7.52,2.41,15.3,4.26,23.15,4.71,9.99.58,21.93-.29,31.39-3.92v7.06C30.69,38.41-.16,28.82-24.9,9.82c-3.88-2.98-8.06-5.48-10.2-10.2,6.35,2.98,13.93,7.19,20.4,9.42Z"/>
                <path class="cls-3" d="M66.9,6.68c-11.46,7.7-23.46,14.97-36.88,18.83-7.85-.45-15.63-2.3-23.15-4.71-4.3-1.38-24.42-9.61-21.58-11.77,20.05,6.91,44.99,7.48,65.52,2.35,7.41-1.85,16.89-8.17,16.09-4.71Z"/>
                <path class="cls-5" d="M211.28.41c-2.37-.59-3.31.07-4.71,2.35-10.75-7.33-20.76-17.04-32.95-21.97-8.68-3.51-18.15-5.39-27.46-5.49-1.24-3.07,3.74-4.25,2.35-5.88-1.02-1.21-4.79.25-7.85.39-1.04-4.8,7.47-.64,12.55-3.14,26.23,2.79,38.98,17.77,58.06,33.74Z"/>
                <path class="cls-9" d="M353.3-22.35c-8.43,6.74-19.36,22.3-35.31,34.52l-.78-.78c3.47-4.85-2.65-4.71-4.71-7.85,17.14-8.62,34.06-24.14,37.27-25.89,1.35-.74,2.17-1.02,3.53,0Z"/>
                <path class="cls-17" d="M-47.65,2.76c1.54,2.17,1.7,4.35,7.85,11.77,15.73,18.98,32.28,31.03,58.06,31.39v3.14c-15.89.04-29.83-4.76-43.15-13.34-9.72-6.26-18.66-15.02-24.32-25.11-1.94-3.46-3.53-7.2-4.71-10.98.39-.23.24-5.39,6.28,3.14Z"/>
                <path class="cls-16" d="M177.54,7.47l-1.57,3.14c-9.85-6.41-27.16-14.59-38.84-13.34-.45.05-8.12,3.1-8.24,3.53-.09.33,3.1,1.4,1.57,5.88-20.76,1.96-36.3,17.46-52.57,28.25-.72-2.92,4.82-5.08,1.18-6.28-21.86,10.75-35.26,20.34-60.81,20.4v-3.14c65.9.91,84.75-84.74,159.28-38.45Z"/>
                <path class="cls-16" d="M77.89,34.93c-12.74,8.45-24.07,17.09-39.62,20.4-27.44,5.85-49.39-.6-71.79-16.48,2.91-3.23,15.42,7.08,8.63-3.14,13.32,8.58,27.27,13.37,43.15,13.34,25.55-.06,38.95-9.65,60.81-20.4,3.64,1.19-1.9,3.35-1.18,6.28Z"/>
                <path class="cls-17" d="M432.54-13.72c-2.1,3.11-16.27-.42-26.29.78-45.54,5.48-70.41,68.4-131.03,72.97-53.42,4.03-67.47-28.75-99.26-49.43l1.57-3.14c29.15,18.11,50.13,60.87,114.16,43.94,57.54-15.21,78.64-85.86,140.84-65.12Z"/>
                <path class="cls-7" d="M206.57,2.76c7.3,4.97,13.23,11.21,22.36,14.91,18.09,7.32,43.98,8.13,62.77,3.92,4.82-1.08,24.65-9.01,25.5-10.2l.78.78c-13.05,10-28.76,19.04-45.51,19.62-51.05,1.75-73.68-33.71-98.08-43.94q-.39-3.53-.78-7.06c12.2,4.93,22.2,14.64,32.95,21.97Z"/>
                <path class="cls-9" d="M146.15-24.7c9.32.1,18.78,1.99,27.46,5.49q.39,3.53.78,7.06c-24.7-10.35-56.86-6.01-77.29,11.77-12.51,10.89-15.52,22.62-35.7,29.03v-7.06c22.44-8.62,32.12-35.83,65.91-43.94,7.39-1.77,11.05-2.44,18.83-2.35Z"/>
              </g>
            </g>
          </g>
        </g>
      </g>
      <path class="cls-19" d="M3.59,59.59C1.36,54.44.25,48.78.25,42.62s1.11-11.82,3.34-16.97c2.22-5.15,5.36-9.64,9.42-13.46,4.06-3.82,8.82-6.77,14.28-8.84C32.75,1.29,38.75.25,45.31.25c7.26,0,13.79,1.21,19.6,3.63,5.81,2.42,10.71,5.93,14.69,10.53l-12.17,11.24c-2.97-3.12-6.2-5.44-9.71-6.96-3.51-1.52-7.33-2.28-11.47-2.28s-7.61.63-10.88,1.87c-3.28,1.25-6.11,3.04-8.48,5.38-2.38,2.34-4.21,5.11-5.5,8.31-1.29,3.2-1.93,6.75-1.93,10.65s.64,7.33,1.93,10.53c1.29,3.2,3.12,5.99,5.5,8.37,2.38,2.38,5.19,4.2,8.43,5.44,3.24,1.25,6.81,1.87,10.71,1.87s7.39-.6,10.94-1.81c1.28-.44,2.55-.99,3.8-1.64v-24.05h17.32v33.24c-4.45,3.36-9.62,5.93-15.51,7.72-5.89,1.79-11.76,2.69-17.61,2.69-6.48,0-12.43-1.03-17.85-3.1-5.42-2.07-10.14-5.01-14.16-8.84-4.02-3.82-7.14-8.31-9.36-13.46ZM111.08,83.58h-18.96V1.65h35.46c7.33,0,13.65,1.19,18.96,3.57,5.31,2.38,9.4,5.79,12.29,10.24,2.89,4.45,4.33,9.75,4.33,15.92s-1.44,11.33-4.33,15.74c-2.89,4.41-6.98,7.78-12.29,10.12-.05.02-.11.04-.16.07l18.3,26.27h-20.48l-15.74-22.84c-.3,0-.58.02-.88.02h-16.5v22.82ZM111.08,45.66h15.45c5.85,0,10.22-1.27,13.11-3.8,2.89-2.53,4.33-6.03,4.33-10.47s-1.44-8.04-4.33-10.53c-2.89-2.5-7.26-3.75-13.11-3.75h-15.45v28.56ZM238.07,68.37h-44.59v-18.96h38.04v-14.75h-38.04v-17.79h43.07V1.65h-61.91v81.93h63.43v-15.21ZM313.09,68.37h-44.59v-18.96h38.04v-14.75h-38.04v-17.79h43.07V1.65h-61.91v81.93h63.43v-15.21ZM343.4,33.85l40.85,49.73h15.57V1.65h-18.73v49.7L340.35,1.65h-15.68v81.93h18.73v-49.73Z"/>
    </g>
  </g>
</svg>