<?xml version="1.0" encoding="utf-8"?>
<!-- Generator: Adobe Illustrator 28.2.0, SVG Export Plug-In . SVG Version: 6.00 Build 0)  -->
<svg version="1.1" id="Layer_1" xmlns="http://www.w3.org/2000/svg" xmlns:xlink="http://www.w3.org/1999/xlink" x="0px" y="0px"
	 viewBox="0 0 6860 1676.6" style="enable-background:new 0 0 6860 1676.6;" xml:space="preserve">
<style type="text/css">
	.st0{fill:#004567;}
	.st1{fill:url(#SVGID_1_);}
	.st2{fill-opacity:0.2;}
	.st3{fill:url(#SVGID_00000005250251691015961270000011678368698863193760_);}
</style>
<path class="st0" d="M1004,46.1L670.8,247.5c-95.9,58-154.5,161.8-154.5,273.9v808.4c0,176.1,142.3,319.1,318.4,320l5331.3,26.9
	c177.4,0.9,321.6-142.6,321.6-320V519.8c0-111.2-57.7-214.4-152.5-272.6L6039,65.2c-116.8-71.7-266.2-61.2-371.7,26.2l-118,97.7
	c-108.7,90-263.5,98.3-381.1,20.2L4954.6,67.7c-111-73.6-256-70.8-364.1,7.1L4393,217.2c-104.1,75-242.9,80.7-352.7,14.3
	L3743.9,52.3c-107.8-65.2-243.8-61-347.4,10.6l-225.5,155.8c-106.9,73.9-247.8,75.8-356.6,4.8L2567.1,62.5
	c-108.8-70.9-249.8-69-356.6,4.8l-224.1,154.9c-104.3,72.1-241.4,75.8-349.5,9.4L1337,47.4C1235-15.3,1106.5-15.8,1004,46.1z"/>
<linearGradient id="SVGID_1_" gradientUnits="userSpaceOnUse" x1="2985.645" y1="1886.5347" x2="2985.645" y2="153.5346" gradientTransform="matrix(1 0 0 -1 0 1831.7937)">
	<stop  offset="0" style="stop-color:#004567"/>
	<stop  offset="1" style="stop-color:#0089CD"/>
</linearGradient>
<path class="st1" d="M487.7,46.1L154.5,247.5C58.6,305.5,0,409.3,0,521.4v808.4c0,176.1,142.3,319.1,318.4,320l5331.3,26.9
	c177.4,0.9,321.6-142.6,321.6-320V519.8c0-111.2-57.7-214.4-152.5-272.6L5522.8,65.2C5406-6.5,5256.5,4.1,5151,91.5l-117.9,97.7
	c-108.7,90-263.5,98.3-381.1,20.2L4438.3,67.7c-111-73.6-256-70.8-364.1,7.1l-197.5,142.4c-104.1,75-242.9,80.7-352.7,14.3
	L3227.6,52.3c-107.8-65.2-243.8-61-347.4,10.6l-225.5,155.8c-106.9,73.9-247.8,75.8-356.6,4.8L2050.8,62.5
	c-108.8-70.9-249.8-69-356.6,4.8l-224.1,154.9c-104.3,72.1-241.4,75.8-349.5,9.4L820.7,47.4C718.7-15.3,590.2-15.8,487.7,46.1z"/>
<path class="st2" d="M487.7,46.1L154.5,247.5C58.6,305.5,0,409.3,0,521.4v808.4c0,176.1,142.3,319.1,318.4,320l5331.3,26.9
	c177.4,0.9,321.6-142.6,321.6-320V519.8c0-111.2-57.7-214.4-152.5-272.6L5522.8,65.2C5406-6.5,5256.5,4.1,5151,91.5l-117.9,97.7
	c-108.7,90-263.5,98.3-381.1,20.2L4438.3,67.7c-111-73.6-256-70.8-364.1,7.1l-197.5,142.4c-104.1,75-242.9,80.7-352.7,14.3
	L3227.6,52.3c-107.8-65.2-243.8-61-347.4,10.6l-225.5,155.8c-106.9,73.9-247.8,75.8-356.6,4.8L2050.8,62.5
	c-108.8-70.9-249.8-69-356.6,4.8l-224.1,154.9c-104.3,72.1-241.4,75.8-349.5,9.4L820.7,47.4C718.7-15.3,590.2-15.8,487.7,46.1z"/>
<linearGradient id="SVGID_00000015342299115074191020000015948506970921156011_" gradientUnits="userSpaceOnUse" x1="3874.3555" y1="1886.5347" x2="3874.3555" y2="153.5346" gradientTransform="matrix(1 0 0 -1 0 1831.7937)">
	<stop  offset="0" style="stop-color:#47A6C2"/>
	<stop  offset="1" style="stop-color:#224F5C"/>
</linearGradient>
<path style="fill:url(#SVGID_00000015342299115074191020000015948506970921156011_);" d="M1376.4,46.1l-333.2,201.4
	c-95.9,58-154.5,161.8-154.5,273.9v808.4c0,176.1,142.3,319.1,318.4,320l5331.3,26.9c177.4,0.9,321.6-142.6,321.6-320V519.8
	c0-111.2-57.7-214.4-152.5-272.6L6411.5,65.2c-116.7-71.7-266.2-61.2-371.7,26.2l-118,97.7c-108.7,90-263.5,98.3-381.1,20.2
	L5327,67.7C5216-6,5071-3.2,4962.9,74.7l-197.5,142.4c-104.1,75-242.9,80.7-352.7,14.3L4116.3,52.3c-107.8-65.2-243.8-61-347.4,10.6
	l-225.5,155.8c-106.9,73.9-247.8,75.8-356.6,4.8L2939.5,62.5c-108.8-70.9-249.8-69-356.6,4.8l-224.1,154.9
	c-104.3,72.1-241.4,75.8-349.5,9.4L1709.5,47.4C1607.4-15.3,1478.9-15.8,1376.4,46.1z"/>
</svg>
